HIERARCHY
ROOT Hips
{
	OFFSET 0.000000 71.427986 0.000000
	CHANNELS 6 Xposition Yposition Zposition Xrotation Yrotation Zrotation
	JOINT Pelvis
	{
		OFFSET 0.000000 0.000000 0.000000
		CHANNELS 3 Xrotation Yrotation Zrotation
		JOINT LeftUpLeg
		{
			OFFSET 6.797100 -2.508499 -1.318700
			CHANNELS 3 Xrotation Yrotation Zrotation
			JOINT LeftLeg
			{
				OFFSET 0.069008 -29.241863 0.690200
				CHANNELS 3 Xrotation Yrotation Zrotation
				JOINT LeftFoot
				{
					OFFSET -0.069008 -29.568123 -0.266800
					CHANNELS 3 Xrotation Yrotation Zrotation
					JOINT LeftToeBase
					{
						OFFSET 3.145500 -8.631000 16.059900
						CHANNELS 3 Xrotation Yrotation Zrotation
						End Site
						{
							OFFSET 0.000000 18.501587 0.000000
						}
					}
				}
			}
			JOINT Left_ShortSleeve
			{
				OFFSET 0.265923 -10.480953 1.153800
				CHANNELS 3 Xrotation Yrotation Zrotation
				End Site
				{
					OFFSET 1.725763 19.823879 0.000000
				}
			}
		}
		JOINT RightUpLeg
		{
			OFFSET -6.797100 -2.508499 -1.318700
			CHANNELS 3 Xrotation Yrotation Zrotation
			JOINT RightLeg
			{
				OFFSET -0.082453 -29.241932 0.688000
				CHANNELS 3 Xrotation Yrotation Zrotation
				JOINT RightFoot
				{
					OFFSET 0.082453 -29.568058 -0.264600
					CHANNELS 3 Xrotation Yrotation Zrotation
					JOINT RightToeBase
					{
						OFFSET -3.115300 -8.682800 16.113400
						CHANNELS 3 Xrotation Yrotation Zrotation
						End Site
						{
							OFFSET 0.000000 18.567114 0.000000
						}
					}
				}
			}
			JOINT Right_ShortSleeve
			{
				OFFSET -0.265923 -10.480953 1.153800
				CHANNELS 3 Xrotation Yrotation Zrotation
				End Site
				{
					OFFSET -1.725766 19.823910 0.000000
				}
			}
		}
	}
	JOINT Spine
	{
		OFFSET 0.000000 13.368103 0.470500
		CHANNELS 3 Xrotation Yrotation Zrotation
		JOINT Spine1
		{
			OFFSET 0.147000 13.837402 0.538800
			CHANNELS 3 Xrotation Yrotation Zrotation
			JOINT Spine2
			{
				OFFSET 0.168000 16.242897 -1.435500
				CHANNELS 3 Xrotation Yrotation Zrotation
				JOINT Neck
				{
					OFFSET 0.217200 18.631500 -1.679100
					CHANNELS 3 Xrotation Yrotation Zrotation
					JOINT Head
					{
						OFFSET 0.000000 6.599396 1.385900
						CHANNELS 3 Xrotation Yrotation Zrotation
						JOINT Hat
						{
							OFFSET -0.532200 27.220596 -10.096100
							CHANNELS 3 Xrotation Yrotation Zrotation
							End Site
							{
								OFFSET 0.000000 22.029861 0.000000
							}
						}
						JOINT HairD
						{
							OFFSET -10.777400 17.437393 -1.325900
							CHANNELS 3 Xrotation Yrotation Zrotation
							JOINT HairD1
							{
								OFFSET -3.290299 -11.051193 1.062200
								CHANNELS 3 Xrotation Yrotation Zrotation
								End Site
								{
									OFFSET 0.000000 11.579437 0.000000
								}
							}
						}
						JOINT HairB
						{
							OFFSET -10.777400 17.437393 1.467900
							CHANNELS 3 Xrotation Yrotation Zrotation
							JOINT HairB1
							{
								OFFSET -1.561200 -12.956299 3.590200
								CHANNELS 3 Xrotation Yrotation Zrotation
								End Site
								{
									OFFSET 0.000000 13.534866 0.000000
								}
							}
						}
						JOINT HairA
						{
							OFFSET 9.713100 17.437393 1.467900
							CHANNELS 3 Xrotation Yrotation Zrotation
							JOINT HairA1
							{
								OFFSET 1.561200 -12.956299 3.590200
								CHANNELS 3 Xrotation Yrotation Zrotation
								End Site
								{
									OFFSET 0.000000 13.534866 0.000000
								}
							}
						}
						JOINT HairC
						{
							OFFSET 9.713100 17.437393 -1.325900
							CHANNELS 3 Xrotation Yrotation Zrotation
							JOINT HairC1
							{
								OFFSET 3.290300 -11.051193 1.062200
								CHANNELS 3 Xrotation Yrotation Zrotation
								End Site
								{
									OFFSET 0.000000 11.579437 0.000000
								}
							}
						}
					}
				}
				JOINT LeftShoulder
				{
					OFFSET 5.101800 15.108002 -2.763700
					CHANNELS 3 Xrotation Yrotation Zrotation
					JOINT LeftArm
					{
						OFFSET 9.825497 2.506317 -1.597400
						CHANNELS 3 Xrotation Yrotation Zrotation
						JOINT LeftForeArm
						{
							OFFSET 21.966244 0.000000 0.000000
							CHANNELS 3 Xrotation Yrotation Zrotation
							JOINT LeftHand
							{
								OFFSET 33.879036 0.000000 0.000000
								CHANNELS 3 Xrotation Yrotation Zrotation
								JOINT LeftHandThumb1
								{
									OFFSET 6.715286 -2.359680 3.363841
									CHANNELS 3 Xrotation Yrotation Zrotation
									JOINT LeftHandThumb2
									{
										OFFSET 2.507072 -1.447464 1.447461
										CHANNELS 3 Xrotation Yrotation Zrotation
										JOINT LeftHandThumb3
										{
											OFFSET 2.898338 -1.673355 1.673357
											CHANNELS 3 Xrotation Yrotation Zrotation
											End Site
											{
												OFFSET -0.295959 3.727692 -0.131651
											}
										}
									}
								}
								JOINT LeftHandIndex1
								{
									OFFSET 14.190811 -0.254547 3.840278
									CHANNELS 3 Xrotation Yrotation Zrotation
									JOINT LeftHandIndex2
									{
										OFFSET 3.551727 0.000000 -0.000000
										CHANNELS 3 Xrotation Yrotation Zrotation
										JOINT LeftHandIndex3
										{
											OFFSET 2.894196 0.000000 0.000000
											CHANNELS 3 Xrotation Yrotation Zrotation
											End Site
											{
												OFFSET -1.000603 2.690872 0.366626
											}
										}
									}
								}
								JOINT LeftHandMiddle1
								{
									OFFSET 13.776489 0.000000 0.000000
									CHANNELS 3 Xrotation Yrotation Zrotation
									JOINT LeftHandMiddle2
									{
										OFFSET 3.438232 0.000000 0.000000
										CHANNELS 3 Xrotation Yrotation Zrotation
										JOINT LeftHandMiddle3
										{
											OFFSET 3.691551 0.000000 0.000000
											CHANNELS 3 Xrotation Yrotation Zrotation
											End Site
											{
												OFFSET -1.082298 3.499527 0.457670
											}
										}
									}
								}
								JOINT LeftHandRing1
								{
									OFFSET 13.966164 -0.268127 -3.067488
									CHANNELS 3 Xrotation Yrotation Zrotation
									JOINT LeftHandRing2
									{
										OFFSET 3.162567 0.000000 0.000000
										CHANNELS 3 Xrotation Yrotation Zrotation
										JOINT LeftHandRing3
										{
											OFFSET 3.324348 0.000000 0.000000
											CHANNELS 3 Xrotation Yrotation Zrotation
											End Site
											{
												OFFSET -0.861900 3.184998 0.405154
											}
										}
									}
								}
								JOINT LeftHandPinky1
								{
									OFFSET 13.131393 -0.168503 -5.746925
									CHANNELS 3 Xrotation Yrotation Zrotation
									JOINT LeftHandPinky2
									{
										OFFSET 2.849182 0.000000 0.000000
										CHANNELS 3 Xrotation Yrotation Zrotation
										JOINT LeftHandPinky3
										{
											OFFSET 2.805038 0.000000 0.000000
											CHANNELS 3 Xrotation Yrotation Zrotation
											End Site
											{
												OFFSET -0.882500 2.642609 0.325652
											}
										}
									}
								}
							}
							JOINT Left_Sleeve
							{
								OFFSET 6.592125 -0.646545 0.805568
								CHANNELS 3 Xrotation Yrotation Zrotation
								End Site
								{
									OFFSET -0.000179 20.275787 -0.000000
								}
							}
						}
					}
				}
				JOINT RightShoulder
				{
					OFFSET -5.731700 15.108002 -2.763700
					CHANNELS 3 Xrotation Yrotation Zrotation
					JOINT RightArm
					{
						OFFSET -9.825497 2.506317 -1.597400
						CHANNELS 3 Xrotation Yrotation Zrotation
						JOINT RightForeArm
						{
							OFFSET -21.966242 0.000000 0.000000
							CHANNELS 3 Xrotation Yrotation Zrotation
							JOINT RightHand
							{
								OFFSET -33.879032 0.000000 0.000000
								CHANNELS 3 Xrotation Yrotation Zrotation
								JOINT RightHandThumb1
								{
									OFFSET -6.715286 -2.359680 3.363841
									CHANNELS 3 Xrotation Yrotation Zrotation
									JOINT RightHandThumb2
									{
										OFFSET -2.507072 -1.447464 1.447461
										CHANNELS 3 Xrotation Yrotation Zrotation
										JOINT RightHandThumb3
										{
											OFFSET -2.898338 -1.673355 1.673357
											CHANNELS 3 Xrotation Yrotation Zrotation
											End Site
											{
												OFFSET 0.295959 3.727692 -0.131651
											}
										}
									}
								}
								JOINT RightHandIndex1
								{
									OFFSET -14.190811 -0.254547 3.840278
									CHANNELS 3 Xrotation Yrotation Zrotation
									JOINT RightHandIndex2
									{
										OFFSET -3.551727 0.000000 -0.000000
										CHANNELS 3 Xrotation Yrotation Zrotation
										JOINT RightHandIndex3
										{
											OFFSET -2.894196 0.000000 0.000000
											CHANNELS 3 Xrotation Yrotation Zrotation
											End Site
											{
												OFFSET 1.000603 2.690872 0.366626
											}
										}
									}
								}
								JOINT RightHandMiddle1
								{
									OFFSET -13.776489 0.000000 0.000000
									CHANNELS 3 Xrotation Yrotation Zrotation
									JOINT RightHandMiddle2
									{
										OFFSET -3.438232 0.000000 0.000000
										CHANNELS 3 Xrotation Yrotation Zrotation
										JOINT RightHandMiddle3
										{
											OFFSET -3.691551 0.000000 0.000000
											CHANNELS 3 Xrotation Yrotation Zrotation
											End Site
											{
												OFFSET 1.082298 3.499527 0.457670
											}
										}
									}
								}
								JOINT RightHandRing1
								{
									OFFSET -13.966164 -0.268127 -3.067488
									CHANNELS 3 Xrotation Yrotation Zrotation
									JOINT RightHandRing2
									{
										OFFSET -3.162567 0.000000 0.000000
										CHANNELS 3 Xrotation Yrotation Zrotation
										JOINT RightHandRing3
										{
											OFFSET -3.324348 0.000000 0.000000
											CHANNELS 3 Xrotation Yrotation Zrotation
											End Site
											{
												OFFSET 0.861900 3.184998 0.405154
											}
										}
									}
								}
								JOINT RightHandPinky1
								{
									OFFSET -13.131393 -0.168503 -5.746925
									CHANNELS 3 Xrotation Yrotation Zrotation
									JOINT RightHandPinky2
									{
										OFFSET -2.849182 0.000000 0.000000
										CHANNELS 3 Xrotation Yrotation Zrotation
										JOINT RightHandPinky3
										{
											OFFSET -2.805038 0.000000 0.000000
											CHANNELS 3 Xrotation Yrotation Zrotation
											End Site
											{
												OFFSET 0.882500 2.642609 0.325652
											}
										}
									}
								}
							}
							JOINT Right_Sleeve
							{
								OFFSET -6.592125 -0.646545 0.805568
								CHANNELS 3 Xrotation Yrotation Zrotation
								End Site
								{
									OFFSET 0.000179 20.275787 -0.000000
								}
							}
						}
					}
				}
				JOINT Bind_Right_JacketString
				{
					OFFSET -3.534800 11.969597 7.200700
					CHANNELS 3 Xrotation Yrotation Zrotation
					JOINT Bind_Right_JacketString1
					{
						OFFSET -0.319900 -6.102600 2.794100
						CHANNELS 3 Xrotation Yrotation Zrotation
						End Site
						{
							OFFSET 0.000000 6.719452 0.000000
						}
					}
				}
				JOINT Bind_Left_JacketString
				{
					OFFSET 2.904800 11.969597 7.200700
					CHANNELS 3 Xrotation Yrotation Zrotation
					JOINT Bind_Left_JacketString1
					{
						OFFSET 0.364800 -5.904503 3.186800
						CHANNELS 3 Xrotation Yrotation Zrotation
						End Site
						{
							OFFSET 0.000000 6.719513 0.000000
						}
					}
				}
				JOINT HairE
				{
					OFFSET 5.915200 17.612701 -11.592200
					CHANNELS 3 Xrotation Yrotation Zrotation
					JOINT HairE1
					{
						OFFSET 0.289200 -7.171898 -1.284500
						CHANNELS 3 Xrotation Yrotation Zrotation
						End Site
						{
							OFFSET 0.000000 7.291756 0.000000
						}
					}
				}
				JOINT HairF
				{
					OFFSET -0.864800 17.612701 -11.592200
					CHANNELS 3 Xrotation Yrotation Zrotation
					JOINT HairF1
					{
						OFFSET 0.000000 -14.087097 -2.127501
						CHANNELS 3 Xrotation Yrotation Zrotation
						End Site
						{
							OFFSET 0.000000 14.246841 0.000000
						}
					}
				}
				JOINT HairG
				{
					OFFSET -8.087700 17.612701 -11.592200
					CHANNELS 3 Xrotation Yrotation Zrotation
					JOINT HairG1
					{
						OFFSET -0.293600 -6.081398 -0.910100
						CHANNELS 3 Xrotation Yrotation Zrotation
						End Site
						{
							OFFSET 0.000000 6.156120 0.000000
						}
					}
				}
			}
		}
	}
	JOINT Pouch
	{
		OFFSET 0.000000 4.394501 10.847300
		CHANNELS 3 Xrotation Yrotation Zrotation
		End Site
		{
			OFFSET 0.000000 21.880577 0.000000
		}
	}
	JOINT Bag
	{
		OFFSET -13.229000 4.813004 -0.593300
		CHANNELS 3 Xrotation Yrotation Zrotation
		End Site
		{
			OFFSET 0.000000 21.880577 0.000000
		}
	}
	JOINT OccupyGuyFacialAnim_Joint
	{
		OFFSET 1.000000 -70.206398 -1.655000
		CHANNELS 3 Xrotation Yrotation Zrotation
		End Site
		{
			OFFSET 0.000000 21.880577 0.000000
		}
	}
}
MOTION
Frames: 4
Frame Time: 0.016667
-1.578421 69.283279 0.175841 -19.801803 -82.305064 -21.011837 -0.000000 0.000000 0.000000 -15.127804 15.382192 8.897465 28.515288 -3.028134 5.032645 -11.844686 1.349577 -6.862848 -0.000000 0.000000 0.000000 0.000000 -0.000002 -0.000000 -10.261926 -23.835982 -7.888042 23.483667 8.651974 -8.607002 -11.526133 -1.336057 10.531056 -0.000000 0.000000 -0.000000 -0.000000 -0.000002 -0.000001 2.270992 0.115104 0.065506 4.588851 0.048045 1.587649 4.566498 0.058995 1.631779 -6.449451 9.163134 -4.228989 1.306331 37.856665 -3.127864 0.000000 0.000001 0.000000 0.000000 0.000001 0.000000 0.000000 0.000001 -0.000000 0.000000 0.000001 0.000000 0.000000 -0.000000 0.000000 0.000000 0.000001 0.000000 0.000000 -0.000000 0.000000 0.000000 0.000001 0.000000 0.000000 0.000001 0.000000 -0.232473 4.637874 -1.359674 25.122283 -77.231244 -42.206211 -0.000002 -14.145789 -0.000008 -51.489869 1.622322 10.545755 -3.708747 -5.344620 -9.285597 10.685387 16.536441 0.020119 0.000000 -0.000000 0.000001 0.013979 0.439245 -3.642313 0.025883 0.597764 -4.959537 0.000000 0.000001 -0.000003 0.013848 0.437327 -3.626335 0.026058 0.599672 -4.975529 0.000001 0.000001 0.000001 0.013978 0.439255 -3.642306 0.025875 0.597748 -4.959533 -0.000001 -0.000003 0.000004 0.254042 4.486454 -3.142209 0.013193 -3.456766 -5.468396 -0.000001 -0.000002 -0.000001 -0.000001 -0.000000 -0.000001 1.612992 4.329179 7.043630 8.595135 25.593740 60.579523 -0.000015 32.803664 0.000012 -7.794405 -23.342757 -5.537496 37.238048 11.415869 9.503658 21.038892 -27.717288 1.484831 -0.000001 0.000000 0.000001 2.191296 -5.070369 46.723524 2.298116 -5.168461 47.920781 -0.000002 -0.000003 -0.000004 2.191298 -5.070366 46.723528 2.298117 -5.168468 47.920775 0.000001 -0.000001 -0.000001 2.191280 -5.070329 46.723528 2.298121 -5.168491 47.920792 0.000001 0.000000 0.000002 2.191294 -5.070362 46.723528 2.298118 -5.168483 47.920778 -0.000001 0.000006 0.000001 -0.000000 -0.000000 0.000001 -0.000000 0.000000 -0.000000 0.000001 0.000000 -0.000000 -0.000000 0.000000 0.000000 -0.000000 0.000000 0.000000 -0.000000 0.000000 -0.000000 0.000001 0.000000 -0.000000 -0.000000 0.000000 0.000000 -0.000000 0.000000 0.000000 -0.000000 0.000000 -0.000000 0.000001 0.000000 -0.000000 -0.000000 0.000000 0.000000 -0.000000 0.000000 0.000000 -0.000000 0.000000 0.000000 
-1.583067 69.287643 0.173241 -19.918908 -82.296137 -21.124961 -0.000000 0.000001 -0.000000 -15.092841 15.394645 8.884287 28.483301 -3.028534 5.044664 -11.829153 1.351661 -6.867212 -0.000000 0.000000 -0.000000 -0.000000 -0.000000 -0.000002 -10.221919 -23.849777 -7.884596 23.450695 8.659554 -8.607532 -11.516212 -1.334499 10.532467 -0.000000 -0.000000 -0.000000 -0.000000 -0.000003 -0.000000 2.266149 0.105764 0.067702 4.580604 0.031463 1.605108 4.558149 0.042193 1.649044 -6.406089 9.181265 -4.285427 1.307515 37.876773 -3.128334 0.000000 0.000002 -0.000000 0.000000 0.000002 -0.000000 0.000000 0.000002 -0.000000 0.000000 0.000002 -0.000000 -0.000000 0.000001 -0.000000 0.000000 0.000002 -0.000000 -0.000000 0.000001 -0.000000 0.000000 0.000002 -0.000000 0.000000 0.000002 -0.000000 -0.234248 4.680305 -1.477823 26.581655 -77.401999 -40.727428 0.000006 -14.148544 0.000013 -51.846480 1.696112 10.532935 -3.708748 -5.344620 -9.285599 10.685385 16.536445 0.020118 -0.000001 0.000001 0.000000 0.013976 0.439243 -3.642313 0.025880 0.597763 -4.959534 0.000003 0.000002 -0.000003 0.013845 0.437328 -3.626336 0.026057 0.599670 -4.975528 0.000000 0.000004 0.000001 0.013975 0.439255 -3.642299 0.025874 0.597746 -4.959535 0.000003 0.000001 0.000000 0.254041 4.486453 -3.142203 0.013190 -3.456766 -5.468395 -0.000002 -0.000001 0.000001 0.000000 -0.000000 -0.000000 1.618817 4.365932 6.951333 8.569715 25.644855 60.639184 0.000015 32.733934 -0.000028 -7.806374 -23.236742 -5.557155 37.238212 11.415981 9.503713 21.038977 -27.717379 1.484863 -0.000000 -0.000001 0.000000 2.191286 -5.070379 46.723511 2.298116 -5.168453 47.920785 -0.000002 0.000003 -0.000001 2.191286 -5.070371 46.723504 2.298120 -5.168469 47.920781 -0.000001 -0.000000 0.000001 2.191279 -5.070341 46.723514 2.298122 -5.168477 47.920778 0.000002 -0.000003 0.000000 2.191283 -5.070367 46.723504 2.298130 -5.168484 47.920788 -0.000001 0.000007 -0.000000 0.000002 -0.000001 0.000001 -0.000000 -0.000000 -0.000000 -0.000000 0.000000 -0.000000 -0.000000 -0.000000 -0.000000 -0.000000 -0.000000 -0.000000 -0.000000 -0.000000 -0.000000 -0.000000 0.000000 -0.000000 -0.000000 -0.000000 -0.000000 -0.000000 -0.000000 -0.000000 -0.000000 -0.000000 -0.000000 -0.000000 0.000000 -0.000000 -0.000000 0.000001 -0.000000 -0.000000 0.000001 -0.000000 -0.000000 0.000001 -0.000000 
-1.588011 69.292244 0.170503 -20.034342 -82.286806 -21.241453 -0.000000 -0.000001 -0.000000 -15.056648 15.393109 8.879242 28.452652 -3.025075 5.049149 -11.816318 1.352932 -6.872127 0.000000 -0.000002 0.000000 -0.000004 0.000000 -0.000000 -10.175785 -23.856679 -7.876984 23.411686 8.660894 -8.598070 -11.503737 -1.332334 10.530351 -0.000000 0.000000 -0.000000 -0.000000 0.000001 -0.000000 2.259350 0.093806 0.074655 4.568352 0.010014 1.625759 4.545689 0.020613 1.669546 -6.358690 9.200895 -4.344189 1.308286 37.902564 -3.127767 0.000000 0.000002 -0.000000 0.000000 0.000002 -0.000000 0.000000 0.000002 -0.000000 0.000000 0.000002 -0.000000 0.000000 -0.000001 0.000000 0.000000 0.000002 -0.000000 0.000000 -0.000001 0.000000 0.000000 0.000002 -0.000000 0.000000 0.000002 -0.000000 -0.236518 4.731595 -1.616346 28.225028 -77.569106 -39.068163 -0.000005 -14.159487 0.000001 -52.203208 1.758407 10.523196 -3.708747 -5.344622 -9.285599 10.685387 16.536443 0.020119 -0.000002 0.000001 0.000001 0.013979 0.439243 -3.642312 0.025879 0.597760 -4.959537 0.000003 0.000002 0.000000 0.013845 0.437327 -3.626336 0.026055 0.599669 -4.975528 0.000002 0.000001 0.000001 0.013976 0.439255 -3.642304 0.025877 0.597745 -4.959531 -0.000002 -0.000002 0.000001 0.254043 4.486452 -3.142210 0.013191 -3.456766 -5.468396 0.000001 -0.000000 0.000001 -0.000001 -0.000001 -0.000001 1.625855 4.410190 6.848789 8.546712 25.709162 60.700977 0.000003 32.649667 -0.000011 -7.850804 -23.139284 -5.600547 37.238396 11.416093 9.503751 21.039042 -27.717478 1.484848 -0.000001 -0.000003 0.000000 2.191291 -5.070373 46.723514 2.298119 -5.168457 47.920771 -0.000001 -0.000000 0.000000 2.191283 -5.070364 46.723504 2.298119 -5.168468 47.920785 0.000002 0.000002 -0.000000 2.191287 -5.070332 46.723504 2.298119 -5.168478 47.920771 0.000001 -0.000005 -0.000001 2.191295 -5.070366 46.723504 2.298119 -5.168475 47.920771 -0.000002 0.000001 -0.000001 -0.000001 -0.000001 0.000001 -0.000001 -0.000000 -0.000000 -0.000000 -0.000000 -0.000000 -0.000001 -0.000000 -0.000000 -0.000001 -0.000000 -0.000000 -0.000001 -0.000000 -0.000000 -0.000000 -0.000000 -0.000000 -0.000001 -0.000000 -0.000000 -0.000001 -0.000000 -0.000000 -0.000001 -0.000000 -0.000000 -0.000000 -0.000000 -0.000000 -0.000000 -0.000001 -0.000000 -0.000000 -0.000001 -0.000000 -0.000000 -0.000001 -0.000000 
-1.592828 69.297081 0.167921 -20.139139 -82.275994 -21.351928 0.000000 -0.000000 0.000000 -15.020631 15.377729 8.880003 28.423583 -3.018294 5.048533 -11.805636 1.353400 -6.877874 0.000000 -0.000000 0.000000 -0.000001 0.000001 -0.000000 -10.124604 -23.858414 -7.866428 23.365927 8.656581 -8.578444 -11.488096 -1.329423 10.524879 -0.000000 0.000001 0.000000 -0.000001 0.000002 -0.000000 2.251506 0.079985 0.086957 4.553621 -0.015323 1.649033 4.530654 -0.004747 1.692759 -6.309807 9.221834 -4.404452 1.308203 37.933317 -3.125744 0.000000 -0.000001 0.000000 0.000000 -0.000001 0.000000 0.000000 -0.000001 0.000000 0.000000 -0.000001 0.000000 -0.000000 0.000001 0.000000 0.000000 -0.000001 0.000000 -0.000000 0.000001 0.000000 0.000000 -0.000001 0.000000 0.000000 -0.000001 0.000000 -0.239165 4.791747 -1.775043 30.042672 -77.727198 -37.237201 -0.000000 -14.178580 -0.000011 -52.563739 1.800019 10.528902 -3.708747 -5.344622 -9.285600 10.685389 16.536438 0.020119 -0.000001 0.000002 0.000002 0.013976 0.439243 -3.642312 0.025881 0.597760 -4.959534 0.000004 0.000003 0.000000 0.013845 0.437329 -3.626331 0.026056 0.599669 -4.975527 0.000001 0.000001 0.000003 0.013978 0.439259 -3.642310 0.025875 0.597747 -4.959534 -0.000001 -0.000003 -0.000001 0.254042 4.486456 -3.142209 0.013189 -3.456766 -5.468397 -0.000000 0.000001 0.000001 -0.000002 -0.000000 0.000001 1.633870 4.460060 6.738923 8.526322 25.781077 60.764785 0.000008 32.555263 -0.000022 -7.926607 -23.053082 -5.669121 37.238540 11.416216 9.503805 21.039136 -27.717550 1.484880 -0.000000 -0.000002 0.000001 2.191262 -5.070369 46.723500 2.298113 -5.168448 47.920778 -0.000000 -0.000001 -0.000003 2.191274 -5.070364 46.723497 2.298114 -5.168451 47.920771 -0.000002 0.000000 -0.000003 2.191262 -5.070331 46.723504 2.298119 -5.168469 47.920771 -0.000001 0.000001 -0.000000 2.191260 -5.070359 46.723494 2.298119 -5.168472 47.920764 -0.000001 0.000002 -0.000001 0.000001 0.000000 -0.000001 -0.000000 -0.000000 -0.000000 -0.000000 -0.000000 -0.000000 -0.000000 -0.000000 -0.000000 -0.000000 -0.000000 -0.000000 -0.000000 -0.000000 -0.000000 -0.000000 -0.000000 -0.000000 -0.000000 -0.000000 -0.000000 -0.000000 -0.000000 -0.000000 -0.000000 -0.000000 -0.000000 -0.000000 -0.000000 -0.000000 0.000000 -0.000000 0.000000 0.000000 -0.000000 0.000000 0.000000 -0.000000 0.000000 
